# xmcd
#
# Track frame offsets: 
#        150
#        14577
#        28390
#        40680
#        53115
#        64625
#        75730
#        86377
#        97057
#        110930
#        119890
#        135950
#
# Disc length: 2056 seconds
#
# Revision: 2
# Processed by: cddbd v1.5.2PL0 Copyright (c) Steve Scherf et al.
# Submitted via: ExactAudioCopy v0.99pb4
#
DISCID=a508060c
DTITLE=The Moonglows - The Best Of The Moonglows: 20th Century Masters
DTITLE=The Millennium Collection
DYEAR=2002
DGENRE=
TTITLE0=Sincerely
TTITLE1=Most Of All
TTITLE2=In My Diary
TTITLE3=We Go Together
TTITLE4=When I'm With You
TTITLE5=See Saw
TTITLE6=Please Send Me Someone To Love
TTITLE7=(I'm Afraid) The Masquerade Is Over
TTITLE8=Blue Velvet
TTITLE9=Over And Over Again
TTITLE10=Sweeter Than Words
TTITLE11=Ten Commandmets Of Love
EXTD=
EXTT0=
EXTT1=
EXTT2=
EXTT3=
EXTT4=
EXTT5=
EXTT6=
EXTT7=
EXTT8=
EXTT9=
EXTT10=
EXTT11=
PLAYORDER=
